# xmcd
#
# Track frame offsets: 
#        150
#        9645
#        23695
#        42275
#        75742
#        85680
#        95695
#        108502
#        117912
#        134597
#        158120
#        177500
#        186455
#        206175
#        224582
#        229740
#        240815
#        257240
#
# Disc length: 3558 seconds
#
# Revision: 1
# Processed by: cddbd v1.5.2PL0 Copyright (c) Steve Scherf et al.
# Submitted via: ExactAudioCopyFreeDBPlugin 1.0
#
DISCID=fa0de412
DTITLE=Beatles - Songs from the Past Vol . 3
DYEAR=1969
DGENRE=Classic Rock
TTITLE0=Tennessee
TTITLE1=House of the Rising Sun
TTITLE2=Commonwealth Song
TTITLE3=Get Off White Power
TTITLE4=Yackety Yack - Hi Ho Silver
TTITLE5=For You Blue
TTITLE6=Let It Be
TTITLE7=Get Back
TTITLE8=Don't Let Me Down
TTITLE9=Two of Us
TTITLE10=Don't Let Me Down
TTITLE11=Suzy Parker
TTITLE12=I've Got a Feeling
TTITLE13=No Pakistanis
TTITLE14=A Long Road
TTITLE15=Shakin' in the Sixties
TTITLE16=Across the Universe
TTITLE17=Two of Us (On Our Way Back Home)
EXTD=
EXTT0=
EXTT1=
EXTT2=
EXTT3=
EXTT4=
EXTT5=
EXTT6=
EXTT7=
EXTT8=
EXTT9=
EXTT10=
EXTT11=
EXTT12=
EXTT13=
EXTT14=
EXTT15=
EXTT16=
EXTT17=
PLAYORDER=
